<svg width="40" height="38" viewBox="0 0 40 38" fill="none" xmlns="http://www.w3.org/2000/svg">
<rect width="40" height="38" rx="4" fill="black"/>
<path d="M16.6839 21.016V18.232H20.2599C21.0119 18.232 21.5879 18.04 21.9879 17.656C22.4039 17.272 22.6119 16.752 22.6119 16.096C22.6119 15.488 22.4119 14.984 22.0119 14.584C21.6119 14.184 21.0359 13.984 20.2839 13.984H16.6839V11.056H20.7159C21.8359 11.056 22.8199 11.272 23.6679 11.704C24.5159 12.12 25.1799 12.704 25.6599 13.456C26.1399 14.208 26.3799 15.072 26.3799 16.048C26.3799 17.04 26.1399 17.912 25.6599 18.664C25.1799 19.4 24.5079 19.976 23.6439 20.392C22.7799 20.808 21.7639 21.016 20.5959 21.016H16.6839ZM13.8039 28V11.056H17.5719V28H13.8039ZM23.0199 28L17.7399 20.704L21.1959 19.768L27.4839 28H23.0199Z" fill="white"/>
<path d="M16.6839 21.016H13.1839V24.516H16.6839V21.016ZM16.6839 18.232V14.732H13.1839V18.232H16.6839ZM21.9879 17.656L19.6139 15.0842L19.5887 15.1074L19.564 15.1311L21.9879 17.656ZM22.0119 14.584L19.537 17.0589L19.537 17.0589L22.0119 14.584ZM16.6839 13.984H13.1839V17.484H16.6839V13.984ZM16.6839 11.056V7.556H13.1839V11.056H16.6839ZM23.6679 11.704L22.0791 14.8226L22.1027 14.8346L22.1264 14.8463L23.6679 11.704ZM25.6599 13.456L28.6101 11.5729L28.6101 11.5729L25.6599 13.456ZM25.6599 18.664L28.5915 20.5759L28.6009 20.5616L28.6101 20.5471L25.6599 18.664ZM23.6439 20.392L25.1622 23.5455L25.1622 23.5455L23.6439 20.392ZM13.8039 28H10.3039V31.5H13.8039V28ZM13.8039 11.056V7.556H10.3039V11.056H13.8039ZM17.5719 11.056H21.0719V7.556H17.5719V11.056ZM17.5719 28V31.5H21.0719V28H17.5719ZM23.0199 28L20.1845 30.0519L21.2324 31.5H23.0199V28ZM17.7399 20.704L16.8249 17.3257L11.9334 18.6505L14.9045 22.7559L17.7399 20.704ZM21.1959 19.768L23.9773 17.6434L22.5502 15.7751L20.2809 16.3897L21.1959 19.768ZM27.4839 28V31.5H34.5616L30.2653 25.8754L27.4839 28ZM16.6839 21.016H20.1839V18.232H16.6839H13.1839V21.016H16.6839ZM16.6839 18.232V21.732H20.2599V18.232V14.732H16.6839V18.232ZM20.2599 18.232V21.732C21.587 21.732 23.1563 21.3861 24.4117 20.1809L21.9879 17.656L19.564 15.1311C19.773 14.9305 19.9919 14.82 20.1491 14.7676C20.2914 14.7202 20.3458 14.732 20.2599 14.732V18.232ZM21.9879 17.656L24.3619 20.2278C25.6117 19.0741 26.1119 17.5589 26.1119 16.096H22.6119H19.1119C19.1119 16.0538 19.1191 15.8959 19.2062 15.6781C19.2979 15.4488 19.4432 15.2417 19.6139 15.0842L21.9879 17.656ZM22.6119 16.096H26.1119C26.1119 14.6365 25.5955 13.2179 24.4867 12.1091L22.0119 14.584L19.537 17.0589C19.4145 16.9363 19.2923 16.7637 19.2087 16.553C19.127 16.3472 19.1119 16.1806 19.1119 16.096H22.6119ZM22.0119 14.584L24.4868 12.1091C23.2363 10.8587 21.6479 10.484 20.2839 10.484V13.984V17.484C20.3568 17.484 20.2877 17.4945 20.1318 17.4404C19.9601 17.3807 19.7394 17.2613 19.537 17.0589L22.0119 14.584ZM20.2839 13.984V10.484H16.6839V13.984V17.484H20.2839V13.984ZM16.6839 13.984H20.1839V11.056H16.6839H13.1839V13.984H16.6839ZM16.6839 11.056V14.556H20.7159V11.056V7.556H16.6839V11.056ZM20.7159 11.056V14.556C21.381 14.556 21.8032 14.6821 22.0791 14.8226L23.6679 11.704L25.2566 8.58536C23.8366 7.86193 22.2908 7.556 20.7159 7.556V11.056ZM23.6679 11.704L22.1264 14.8463C22.4336 14.9969 22.5955 15.1603 22.7096 15.3391L25.6599 13.456L28.6101 11.5729C27.7643 10.2477 26.5982 9.24305 25.2094 8.56174L23.6679 11.704ZM25.6599 13.456L22.7096 15.3391C22.7971 15.4762 22.8799 15.6741 22.8799 16.048H26.3799H29.8799C29.8799 14.4699 29.4826 12.9398 28.6101 11.5729L25.6599 13.456ZM26.3799 16.048H22.8799C22.8799 16.4499 22.7912 16.6531 22.7096 16.7809L25.6599 18.664L28.6101 20.5471C29.4885 19.1709 29.8799 17.6301 29.8799 16.048H26.3799ZM25.6599 18.664L22.7282 16.7521C22.6287 16.9046 22.4683 17.0735 22.1255 17.2385L23.6439 20.392L25.1622 23.5455C26.5475 22.8785 27.731 21.8954 28.5915 20.5759L25.6599 18.664ZM23.6439 20.392L22.1255 17.2385C21.8272 17.3822 21.3508 17.516 20.5959 17.516V21.016V24.516C22.177 24.516 23.7326 24.2338 25.1622 23.5455L23.6439 20.392ZM20.5959 21.016V17.516H16.6839V21.016V24.516H20.5959V21.016ZM13.8039 28H17.3039V11.056H13.8039H10.3039V28H13.8039ZM13.8039 11.056V14.556H17.5719V11.056V7.556H13.8039V11.056ZM17.5719 11.056H14.0719V28H17.5719H21.0719V11.056H17.5719ZM17.5719 28V24.5H13.8039V28V31.5H17.5719V28ZM23.0199 28L25.8553 25.9481L20.5753 18.6521L17.7399 20.704L14.9045 22.7559L20.1845 30.0519L23.0199 28ZM17.7399 20.704L18.6548 24.0823L22.1108 23.1463L21.1959 19.768L20.2809 16.3897L16.8249 17.3257L17.7399 20.704ZM21.1959 19.768L18.4145 21.8926L24.7025 30.1246L27.4839 28L30.2653 25.8754L23.9773 17.6434L21.1959 19.768ZM27.4839 28V24.5H23.0199V28V31.5H27.4839V28Z" fill="white"/>
</svg>
